<mxfile host="Electron" modified="2023-11-11T12:38:48.300Z" agent="Mozilla/5.0 (Macintosh; Intel Mac OS X 10_15_7) AppleWebKit/537.36 (KHTML, like Gecko) draw.io/22.0.3 Chrome/114.0.5735.289 Electron/25.8.4 Safari/537.36" etag="_nhYhWcbkWdQfpfq0OQD" version="22.0.3" type="device" pages="3">
  <diagram name="第一阶段" id="9Xu8qlVQhkeFNfa1MU2w">
    <mxGraphModel dx="1541" dy="915" grid="0" gridSize="10" guides="1" tooltips="1" connect="1" arrows="1" fold="1" page="0" pageScale="1" pageWidth="827" pageHeight="1169" math="0" shadow="0">
      <root>
        <mxCell id="0" />
        <mxCell id="1" parent="0" />
        <mxCell id="ClI0C_GQzGT5sE4PsS2t-14" style="edgeStyle=orthogonalEdgeStyle;rounded=0;sketch=1;hachureGap=4;jiggle=2;curveFitting=1;orthogonalLoop=1;jettySize=auto;html=1;entryX=0;entryY=0.5;entryDx=0;entryDy=0;fontFamily=Architects Daughter;fontSource=https%3A%2F%2Ffonts.googleapis.com%2Fcss%3Ffamily%3DArchitects%2BDaughter;fontSize=16;" edge="1" parent="1" source="ClI0C_GQzGT5sE4PsS2t-1" target="ClI0C_GQzGT5sE4PsS2t-4">
          <mxGeometry relative="1" as="geometry" />
        </mxCell>
        <mxCell id="ClI0C_GQzGT5sE4PsS2t-1" value="Dever" style="shape=umlActor;verticalLabelPosition=bottom;verticalAlign=top;html=1;outlineConnect=0;sketch=1;hachureGap=4;jiggle=2;curveFitting=1;fontFamily=Architects Daughter;fontSource=https%3A%2F%2Ffonts.googleapis.com%2Fcss%3Ffamily%3DArchitects%2BDaughter;fontSize=20;" vertex="1" parent="1">
          <mxGeometry x="-101" y="215" width="30" height="60" as="geometry" />
        </mxCell>
        <mxCell id="ClI0C_GQzGT5sE4PsS2t-6" value="" style="edgeStyle=orthogonalEdgeStyle;rounded=0;sketch=1;hachureGap=4;jiggle=2;curveFitting=1;orthogonalLoop=1;jettySize=auto;html=1;fontFamily=Architects Daughter;fontSource=https%3A%2F%2Ffonts.googleapis.com%2Fcss%3Ffamily%3DArchitects%2BDaughter;fontSize=16;" edge="1" parent="1" source="ClI0C_GQzGT5sE4PsS2t-4" target="ClI0C_GQzGT5sE4PsS2t-5">
          <mxGeometry relative="1" as="geometry" />
        </mxCell>
        <mxCell id="ClI0C_GQzGT5sE4PsS2t-7" value="修改代码" style="edgeLabel;html=1;align=center;verticalAlign=middle;resizable=0;points=[];fontSize=20;fontFamily=Architects Daughter;" vertex="1" connectable="0" parent="ClI0C_GQzGT5sE4PsS2t-6">
          <mxGeometry x="-0.1444" y="2" relative="1" as="geometry">
            <mxPoint as="offset" />
          </mxGeometry>
        </mxCell>
        <mxCell id="ClI0C_GQzGT5sE4PsS2t-9" style="edgeStyle=orthogonalEdgeStyle;rounded=0;sketch=1;hachureGap=4;jiggle=2;curveFitting=1;orthogonalLoop=1;jettySize=auto;html=1;entryX=0;entryY=0.5;entryDx=0;entryDy=0;fontFamily=Architects Daughter;fontSource=https%3A%2F%2Ffonts.googleapis.com%2Fcss%3Ffamily%3DArchitects%2BDaughter;fontSize=16;exitX=0.5;exitY=1;exitDx=0;exitDy=0;" edge="1" parent="1" source="ClI0C_GQzGT5sE4PsS2t-4" target="ClI0C_GQzGT5sE4PsS2t-8">
          <mxGeometry relative="1" as="geometry" />
        </mxCell>
        <mxCell id="ClI0C_GQzGT5sE4PsS2t-10" value="编写对象" style="edgeLabel;html=1;align=center;verticalAlign=middle;resizable=0;points=[];fontSize=20;fontFamily=Architects Daughter;" vertex="1" connectable="0" parent="ClI0C_GQzGT5sE4PsS2t-9">
          <mxGeometry x="0.2832" y="4" relative="1" as="geometry">
            <mxPoint x="1" y="7" as="offset" />
          </mxGeometry>
        </mxCell>
        <mxCell id="ClI0C_GQzGT5sE4PsS2t-4" value="原始代码&lt;br&gt;（自主准备）" style="rounded=1;whiteSpace=wrap;html=1;sketch=1;hachureGap=4;jiggle=2;curveFitting=1;fontFamily=Architects Daughter;fontSource=https%3A%2F%2Ffonts.googleapis.com%2Fcss%3Ffamily%3DArchitects%2BDaughter;fontSize=20;" vertex="1" parent="1">
          <mxGeometry x="25" y="215" width="173" height="60" as="geometry" />
        </mxCell>
        <mxCell id="ClI0C_GQzGT5sE4PsS2t-12" style="edgeStyle=orthogonalEdgeStyle;rounded=0;sketch=1;hachureGap=4;jiggle=2;curveFitting=1;orthogonalLoop=1;jettySize=auto;html=1;fontFamily=Architects Daughter;fontSource=https%3A%2F%2Ffonts.googleapis.com%2Fcss%3Ffamily%3DArchitects%2BDaughter;fontSize=16;" edge="1" parent="1" source="ClI0C_GQzGT5sE4PsS2t-5" target="ClI0C_GQzGT5sE4PsS2t-11">
          <mxGeometry relative="1" as="geometry" />
        </mxCell>
        <mxCell id="ClI0C_GQzGT5sE4PsS2t-5" value="模板文件" style="rounded=1;whiteSpace=wrap;html=1;sketch=1;hachureGap=4;jiggle=2;curveFitting=1;fontFamily=Architects Daughter;fontSource=https%3A%2F%2Ffonts.googleapis.com%2Fcss%3Ffamily%3DArchitects%2BDaughter;fontSize=20;" vertex="1" parent="1">
          <mxGeometry x="385" y="215" width="173" height="60" as="geometry" />
        </mxCell>
        <mxCell id="ClI0C_GQzGT5sE4PsS2t-13" style="edgeStyle=orthogonalEdgeStyle;rounded=0;sketch=1;hachureGap=4;jiggle=2;curveFitting=1;orthogonalLoop=1;jettySize=auto;html=1;entryX=0;entryY=0.5;entryDx=0;entryDy=0;fontFamily=Architects Daughter;fontSource=https%3A%2F%2Ffonts.googleapis.com%2Fcss%3Ffamily%3DArchitects%2BDaughter;fontSize=16;" edge="1" parent="1" source="ClI0C_GQzGT5sE4PsS2t-8" target="ClI0C_GQzGT5sE4PsS2t-11">
          <mxGeometry relative="1" as="geometry" />
        </mxCell>
        <mxCell id="ClI0C_GQzGT5sE4PsS2t-8" value="预设参数" style="rounded=1;whiteSpace=wrap;html=1;sketch=1;hachureGap=4;jiggle=2;curveFitting=1;fontFamily=Architects Daughter;fontSource=https%3A%2F%2Ffonts.googleapis.com%2Fcss%3Ffamily%3DArchitects%2BDaughter;fontSize=20;" vertex="1" parent="1">
          <mxGeometry x="385" y="337" width="173" height="60" as="geometry" />
        </mxCell>
        <mxCell id="ClI0C_GQzGT5sE4PsS2t-11" value="代码生成器&lt;br&gt;（Jar包）" style="rounded=1;whiteSpace=wrap;html=1;sketch=1;hachureGap=4;jiggle=2;curveFitting=1;fontFamily=Architects Daughter;fontSource=https%3A%2F%2Ffonts.googleapis.com%2Fcss%3Ffamily%3DArchitects%2BDaughter;fontSize=20;" vertex="1" parent="1">
          <mxGeometry x="717" y="215" width="173" height="60" as="geometry" />
        </mxCell>
        <mxCell id="ClI0C_GQzGT5sE4PsS2t-15" style="edgeStyle=orthogonalEdgeStyle;rounded=0;sketch=1;hachureGap=4;jiggle=2;curveFitting=1;orthogonalLoop=1;jettySize=auto;html=1;entryX=0;entryY=0.5;entryDx=0;entryDy=0;fontFamily=Architects Daughter;fontSource=https%3A%2F%2Ffonts.googleapis.com%2Fcss%3Ffamily%3DArchitects%2BDaughter;fontSize=16;" edge="1" parent="1" source="ClI0C_GQzGT5sE4PsS2t-16" target="ClI0C_GQzGT5sE4PsS2t-21">
          <mxGeometry relative="1" as="geometry" />
        </mxCell>
        <mxCell id="ClI0C_GQzGT5sE4PsS2t-16" value="User" style="shape=umlActor;verticalLabelPosition=bottom;verticalAlign=top;html=1;outlineConnect=0;sketch=1;hachureGap=4;jiggle=2;curveFitting=1;fontFamily=Architects Daughter;fontSource=https%3A%2F%2Ffonts.googleapis.com%2Fcss%3Ffamily%3DArchitects%2BDaughter;fontSize=20;" vertex="1" parent="1">
          <mxGeometry x="-101" y="499" width="30" height="60" as="geometry" />
        </mxCell>
        <mxCell id="ClI0C_GQzGT5sE4PsS2t-17" value="" style="edgeStyle=orthogonalEdgeStyle;rounded=0;sketch=1;hachureGap=4;jiggle=2;curveFitting=1;orthogonalLoop=1;jettySize=auto;html=1;fontFamily=Architects Daughter;fontSource=https%3A%2F%2Ffonts.googleapis.com%2Fcss%3Ffamily%3DArchitects%2BDaughter;fontSize=16;" edge="1" parent="1" source="ClI0C_GQzGT5sE4PsS2t-21" target="ClI0C_GQzGT5sE4PsS2t-23">
          <mxGeometry relative="1" as="geometry" />
        </mxCell>
        <mxCell id="ClI0C_GQzGT5sE4PsS2t-19" style="edgeStyle=orthogonalEdgeStyle;rounded=0;sketch=1;hachureGap=4;jiggle=2;curveFitting=1;orthogonalLoop=1;jettySize=auto;html=1;entryX=0;entryY=0.5;entryDx=0;entryDy=0;fontFamily=Architects Daughter;fontSource=https%3A%2F%2Ffonts.googleapis.com%2Fcss%3Ffamily%3DArchitects%2BDaughter;fontSize=16;exitX=0.5;exitY=1;exitDx=0;exitDy=0;" edge="1" parent="1" source="ClI0C_GQzGT5sE4PsS2t-21" target="ClI0C_GQzGT5sE4PsS2t-25">
          <mxGeometry relative="1" as="geometry" />
        </mxCell>
        <mxCell id="ClI0C_GQzGT5sE4PsS2t-20" value="命令行交互" style="edgeLabel;html=1;align=center;verticalAlign=middle;resizable=0;points=[];fontSize=20;fontFamily=Architects Daughter;" vertex="1" connectable="0" parent="ClI0C_GQzGT5sE4PsS2t-19">
          <mxGeometry x="0.2832" y="4" relative="1" as="geometry">
            <mxPoint x="1" y="7" as="offset" />
          </mxGeometry>
        </mxCell>
        <mxCell id="ClI0C_GQzGT5sE4PsS2t-21" value="下载代码生成器&lt;br&gt;（Jar包）" style="rounded=1;whiteSpace=wrap;html=1;sketch=1;hachureGap=4;jiggle=2;curveFitting=1;fontFamily=Architects Daughter;fontSource=https%3A%2F%2Ffonts.googleapis.com%2Fcss%3Ffamily%3DArchitects%2BDaughter;fontSize=20;" vertex="1" parent="1">
          <mxGeometry x="25" y="499" width="173" height="60" as="geometry" />
        </mxCell>
        <mxCell id="ClI0C_GQzGT5sE4PsS2t-22" style="edgeStyle=orthogonalEdgeStyle;rounded=0;sketch=1;hachureGap=4;jiggle=2;curveFitting=1;orthogonalLoop=1;jettySize=auto;html=1;fontFamily=Architects Daughter;fontSource=https%3A%2F%2Ffonts.googleapis.com%2Fcss%3Ffamily%3DArchitects%2BDaughter;fontSize=16;" edge="1" parent="1" source="ClI0C_GQzGT5sE4PsS2t-23" target="ClI0C_GQzGT5sE4PsS2t-26">
          <mxGeometry relative="1" as="geometry" />
        </mxCell>
        <mxCell id="ClI0C_GQzGT5sE4PsS2t-23" value="模板文件" style="rounded=1;whiteSpace=wrap;html=1;sketch=1;hachureGap=4;jiggle=2;curveFitting=1;fontFamily=Architects Daughter;fontSource=https%3A%2F%2Ffonts.googleapis.com%2Fcss%3Ffamily%3DArchitects%2BDaughter;fontSize=20;" vertex="1" parent="1">
          <mxGeometry x="385" y="499" width="173" height="60" as="geometry" />
        </mxCell>
        <mxCell id="ClI0C_GQzGT5sE4PsS2t-24" style="edgeStyle=orthogonalEdgeStyle;rounded=0;sketch=1;hachureGap=4;jiggle=2;curveFitting=1;orthogonalLoop=1;jettySize=auto;html=1;entryX=0;entryY=0.5;entryDx=0;entryDy=0;fontFamily=Architects Daughter;fontSource=https%3A%2F%2Ffonts.googleapis.com%2Fcss%3Ffamily%3DArchitects%2BDaughter;fontSize=16;" edge="1" parent="1" source="ClI0C_GQzGT5sE4PsS2t-25" target="ClI0C_GQzGT5sE4PsS2t-26">
          <mxGeometry relative="1" as="geometry" />
        </mxCell>
        <mxCell id="ClI0C_GQzGT5sE4PsS2t-25" value="输入参数" style="rounded=1;whiteSpace=wrap;html=1;sketch=1;hachureGap=4;jiggle=2;curveFitting=1;fontFamily=Architects Daughter;fontSource=https%3A%2F%2Ffonts.googleapis.com%2Fcss%3Ffamily%3DArchitects%2BDaughter;fontSize=20;" vertex="1" parent="1">
          <mxGeometry x="385" y="621" width="173" height="60" as="geometry" />
        </mxCell>
        <mxCell id="ClI0C_GQzGT5sE4PsS2t-26" value="产物代码" style="rounded=1;whiteSpace=wrap;html=1;sketch=1;hachureGap=4;jiggle=2;curveFitting=1;fontFamily=Architects Daughter;fontSource=https%3A%2F%2Ffonts.googleapis.com%2Fcss%3Ffamily%3DArchitects%2BDaughter;fontSize=20;" vertex="1" parent="1">
          <mxGeometry x="717" y="499" width="173" height="60" as="geometry" />
        </mxCell>
        <mxCell id="ClI0C_GQzGT5sE4PsS2t-27" value="&lt;font style=&quot;font-size: 25px;&quot;&gt;&lt;b&gt;CodeCraft第一阶段流程图&lt;/b&gt;&lt;/font&gt;" style="text;html=1;strokeColor=none;fillColor=#999999;align=center;verticalAlign=middle;whiteSpace=wrap;rounded=1;fontSize=20;fontFamily=Architects Daughter;glass=1;shadow=1;sketch=1;curveFitting=1;jiggle=2;" vertex="1" parent="1">
          <mxGeometry x="-207" y="151" width="306" height="30" as="geometry" />
        </mxCell>
      </root>
    </mxGraphModel>
  </diagram>
  <diagram id="i2l6Puc79Jm1leXPhgCn" name="第二阶段">
    <mxGraphModel dx="1941" dy="1315" grid="0" gridSize="10" guides="1" tooltips="1" connect="1" arrows="1" fold="1" page="0" pageScale="1" pageWidth="827" pageHeight="1169" math="0" shadow="0">
      <root>
        <mxCell id="0" />
        <mxCell id="1" parent="0" />
        <mxCell id="Cr0Oanmq5arxxwqMKheN-15" style="edgeStyle=orthogonalEdgeStyle;rounded=0;sketch=1;hachureGap=4;jiggle=2;curveFitting=1;orthogonalLoop=1;jettySize=auto;html=1;entryX=0;entryY=0.5;entryDx=0;entryDy=0;fontFamily=Architects Daughter;fontSource=https%3A%2F%2Ffonts.googleapis.com%2Fcss%3Ffamily%3DArchitects%2BDaughter;fontSize=16;" edge="1" parent="1" source="NOzwdlU3Tr_xnLm872rN-1" target="Cr0Oanmq5arxxwqMKheN-1">
          <mxGeometry relative="1" as="geometry" />
        </mxCell>
        <mxCell id="NOzwdlU3Tr_xnLm872rN-1" value="Dever" style="shape=umlActor;verticalLabelPosition=bottom;verticalAlign=top;html=1;outlineConnect=0;sketch=1;hachureGap=4;jiggle=2;curveFitting=1;fontFamily=Architects Daughter;fontSource=https%3A%2F%2Ffonts.googleapis.com%2Fcss%3Ffamily%3DArchitects%2BDaughter;fontSize=20;" vertex="1" parent="1">
          <mxGeometry x="-316" y="5" width="30" height="60" as="geometry" />
        </mxCell>
        <mxCell id="Cr0Oanmq5arxxwqMKheN-3" value="" style="edgeStyle=orthogonalEdgeStyle;rounded=0;sketch=1;hachureGap=4;jiggle=2;curveFitting=1;orthogonalLoop=1;jettySize=auto;html=1;fontFamily=Architects Daughter;fontSource=https%3A%2F%2Ffonts.googleapis.com%2Fcss%3Ffamily%3DArchitects%2BDaughter;fontSize=16;" edge="1" parent="1" source="Cr0Oanmq5arxxwqMKheN-1" target="Cr0Oanmq5arxxwqMKheN-2">
          <mxGeometry relative="1" as="geometry" />
        </mxCell>
        <mxCell id="Cr0Oanmq5arxxwqMKheN-1" value="原始代码&lt;br&gt;（自主准备）" style="rounded=1;whiteSpace=wrap;html=1;sketch=1;hachureGap=4;jiggle=2;curveFitting=1;fontFamily=Architects Daughter;fontSource=https%3A%2F%2Ffonts.googleapis.com%2Fcss%3Ffamily%3DArchitects%2BDaughter;fontSize=20;" vertex="1" parent="1">
          <mxGeometry x="-170" y="5" width="173" height="60" as="geometry" />
        </mxCell>
        <mxCell id="Cr0Oanmq5arxxwqMKheN-5" value="" style="edgeStyle=orthogonalEdgeStyle;rounded=0;sketch=1;hachureGap=4;jiggle=2;curveFitting=1;orthogonalLoop=1;jettySize=auto;html=1;fontFamily=Architects Daughter;fontSource=https%3A%2F%2Ffonts.googleapis.com%2Fcss%3Ffamily%3DArchitects%2BDaughter;fontSize=16;" edge="1" parent="1" source="Cr0Oanmq5arxxwqMKheN-2" target="Cr0Oanmq5arxxwqMKheN-4">
          <mxGeometry relative="1" as="geometry" />
        </mxCell>
        <mxCell id="Cr0Oanmq5arxxwqMKheN-6" value="生成" style="edgeLabel;html=1;align=center;verticalAlign=middle;resizable=0;points=[];fontSize=20;fontFamily=Architects Daughter;" vertex="1" connectable="0" parent="Cr0Oanmq5arxxwqMKheN-5">
          <mxGeometry x="-0.0488" relative="1" as="geometry">
            <mxPoint as="offset" />
          </mxGeometry>
        </mxCell>
        <mxCell id="Cr0Oanmq5arxxwqMKheN-8" style="edgeStyle=orthogonalEdgeStyle;rounded=0;sketch=1;hachureGap=4;jiggle=2;curveFitting=1;orthogonalLoop=1;jettySize=auto;html=1;entryX=0;entryY=0.5;entryDx=0;entryDy=0;fontFamily=Architects Daughter;fontSource=https%3A%2F%2Ffonts.googleapis.com%2Fcss%3Ffamily%3DArchitects%2BDaughter;fontSize=16;exitX=0.5;exitY=1;exitDx=0;exitDy=0;" edge="1" parent="1" source="Cr0Oanmq5arxxwqMKheN-2" target="Cr0Oanmq5arxxwqMKheN-7">
          <mxGeometry relative="1" as="geometry" />
        </mxCell>
        <mxCell id="Cr0Oanmq5arxxwqMKheN-9" value="生成" style="edgeLabel;html=1;align=center;verticalAlign=middle;resizable=0;points=[];fontSize=20;fontFamily=Architects Daughter;" vertex="1" connectable="0" parent="Cr0Oanmq5arxxwqMKheN-8">
          <mxGeometry x="0.534" y="-2" relative="1" as="geometry">
            <mxPoint as="offset" />
          </mxGeometry>
        </mxCell>
        <mxCell id="Cr0Oanmq5arxxwqMKheN-13" style="edgeStyle=orthogonalEdgeStyle;rounded=0;sketch=1;hachureGap=4;jiggle=2;curveFitting=1;orthogonalLoop=1;jettySize=auto;html=1;entryX=0.5;entryY=1;entryDx=0;entryDy=0;fontFamily=Architects Daughter;fontSource=https%3A%2F%2Ffonts.googleapis.com%2Fcss%3Ffamily%3DArchitects%2BDaughter;fontSize=16;" edge="1" parent="1" source="Cr0Oanmq5arxxwqMKheN-2" target="Cr0Oanmq5arxxwqMKheN-10">
          <mxGeometry relative="1" as="geometry">
            <Array as="points">
              <mxPoint x="170" y="254" />
              <mxPoint x="836" y="254" />
            </Array>
          </mxGeometry>
        </mxCell>
        <mxCell id="Cr0Oanmq5arxxwqMKheN-14" value="生成" style="edgeLabel;html=1;align=center;verticalAlign=middle;resizable=0;points=[];fontSize=20;fontFamily=Architects Daughter;" vertex="1" connectable="0" parent="Cr0Oanmq5arxxwqMKheN-13">
          <mxGeometry x="-0.3094" y="-3" relative="1" as="geometry">
            <mxPoint x="1" as="offset" />
          </mxGeometry>
        </mxCell>
        <mxCell id="Cr0Oanmq5arxxwqMKheN-2" value="制作工具" style="rounded=1;whiteSpace=wrap;html=1;sketch=1;hachureGap=4;jiggle=2;curveFitting=1;fontFamily=Architects Daughter;fontSource=https%3A%2F%2Ffonts.googleapis.com%2Fcss%3Ffamily%3DArchitects%2BDaughter;fontSize=20;" vertex="1" parent="1">
          <mxGeometry x="83" y="5" width="173" height="60" as="geometry" />
        </mxCell>
        <mxCell id="Cr0Oanmq5arxxwqMKheN-11" style="edgeStyle=orthogonalEdgeStyle;rounded=0;sketch=1;hachureGap=4;jiggle=2;curveFitting=1;orthogonalLoop=1;jettySize=auto;html=1;fontFamily=Architects Daughter;fontSource=https%3A%2F%2Ffonts.googleapis.com%2Fcss%3Ffamily%3DArchitects%2BDaughter;fontSize=16;" edge="1" parent="1" source="Cr0Oanmq5arxxwqMKheN-4" target="Cr0Oanmq5arxxwqMKheN-10">
          <mxGeometry relative="1" as="geometry" />
        </mxCell>
        <mxCell id="Cr0Oanmq5arxxwqMKheN-4" value="模板文件" style="rounded=1;whiteSpace=wrap;html=1;sketch=1;hachureGap=4;jiggle=2;curveFitting=1;fontFamily=Architects Daughter;fontSource=https%3A%2F%2Ffonts.googleapis.com%2Fcss%3Ffamily%3DArchitects%2BDaughter;fontSize=20;" vertex="1" parent="1">
          <mxGeometry x="420" y="5" width="173" height="60" as="geometry" />
        </mxCell>
        <mxCell id="Cr0Oanmq5arxxwqMKheN-12" style="edgeStyle=orthogonalEdgeStyle;rounded=0;sketch=1;hachureGap=4;jiggle=2;curveFitting=1;orthogonalLoop=1;jettySize=auto;html=1;entryX=0;entryY=0.5;entryDx=0;entryDy=0;fontFamily=Architects Daughter;fontSource=https%3A%2F%2Ffonts.googleapis.com%2Fcss%3Ffamily%3DArchitects%2BDaughter;fontSize=16;" edge="1" parent="1" source="Cr0Oanmq5arxxwqMKheN-7" target="Cr0Oanmq5arxxwqMKheN-10">
          <mxGeometry relative="1" as="geometry" />
        </mxCell>
        <mxCell id="Cr0Oanmq5arxxwqMKheN-7" value="预设参数&lt;br&gt;（类）" style="rounded=1;whiteSpace=wrap;html=1;sketch=1;hachureGap=4;jiggle=2;curveFitting=1;fontFamily=Architects Daughter;fontSource=https%3A%2F%2Ffonts.googleapis.com%2Fcss%3Ffamily%3DArchitects%2BDaughter;fontSize=20;" vertex="1" parent="1">
          <mxGeometry x="420" y="145" width="173" height="60" as="geometry" />
        </mxCell>
        <mxCell id="Cr0Oanmq5arxxwqMKheN-10" value="代码生成器&lt;br&gt;（Jar包）" style="rounded=1;whiteSpace=wrap;html=1;sketch=1;hachureGap=4;jiggle=2;curveFitting=1;fontFamily=Architects Daughter;fontSource=https%3A%2F%2Ffonts.googleapis.com%2Fcss%3Ffamily%3DArchitects%2BDaughter;fontSize=20;" vertex="1" parent="1">
          <mxGeometry x="749" y="5" width="173" height="60" as="geometry" />
        </mxCell>
        <mxCell id="9s6vtpCoAX07Tezq3xqk-1" value="&lt;font style=&quot;font-size: 25px;&quot;&gt;&lt;b&gt;CodeCraft第二阶段流程图&lt;/b&gt;&lt;/font&gt;" style="text;html=1;strokeColor=none;fillColor=#999999;align=center;verticalAlign=middle;whiteSpace=wrap;rounded=1;fontSize=20;fontFamily=Architects Daughter;glass=1;shadow=1;sketch=1;curveFitting=1;jiggle=2;" vertex="1" parent="1">
          <mxGeometry x="-408" y="-76" width="306" height="30" as="geometry" />
        </mxCell>
      </root>
    </mxGraphModel>
  </diagram>
  <diagram id="AGKjVGcz738wtX787pHL" name="第三阶段">
    <mxGraphModel dx="1941" dy="1315" grid="0" gridSize="10" guides="1" tooltips="1" connect="1" arrows="1" fold="1" page="0" pageScale="1" pageWidth="827" pageHeight="1169" math="0" shadow="0">
      <root>
        <mxCell id="0" />
        <mxCell id="1" parent="0" />
        <mxCell id="36B8C9YstbzIjQ_irZci-1" style="edgeStyle=orthogonalEdgeStyle;rounded=0;sketch=1;hachureGap=4;jiggle=2;curveFitting=1;orthogonalLoop=1;jettySize=auto;html=1;entryX=0;entryY=0.5;entryDx=0;entryDy=0;fontFamily=Architects Daughter;fontSource=https%3A%2F%2Ffonts.googleapis.com%2Fcss%3Ffamily%3DArchitects%2BDaughter;fontSize=16;" edge="1" parent="1" source="36B8C9YstbzIjQ_irZci-2" target="36B8C9YstbzIjQ_irZci-4">
          <mxGeometry relative="1" as="geometry" />
        </mxCell>
        <mxCell id="36B8C9YstbzIjQ_irZci-2" value="Dever" style="shape=umlActor;verticalLabelPosition=bottom;verticalAlign=top;html=1;outlineConnect=0;sketch=1;hachureGap=4;jiggle=2;curveFitting=1;fontFamily=Architects Daughter;fontSource=https%3A%2F%2Ffonts.googleapis.com%2Fcss%3Ffamily%3DArchitects%2BDaughter;fontSize=20;" vertex="1" parent="1">
          <mxGeometry x="-316" y="5" width="30" height="60" as="geometry" />
        </mxCell>
        <mxCell id="36B8C9YstbzIjQ_irZci-3" value="" style="edgeStyle=orthogonalEdgeStyle;rounded=0;sketch=1;hachureGap=4;jiggle=2;curveFitting=1;orthogonalLoop=1;jettySize=auto;html=1;fontFamily=Architects Daughter;fontSource=https%3A%2F%2Ffonts.googleapis.com%2Fcss%3Ffamily%3DArchitects%2BDaughter;fontSize=16;" edge="1" parent="1" source="36B8C9YstbzIjQ_irZci-4" target="36B8C9YstbzIjQ_irZci-11">
          <mxGeometry relative="1" as="geometry" />
        </mxCell>
        <mxCell id="36B8C9YstbzIjQ_irZci-4" value="原始代码&lt;br&gt;（本地复制 / 远程拉取）" style="rounded=1;whiteSpace=wrap;html=1;sketch=1;hachureGap=4;jiggle=2;curveFitting=1;fontFamily=Architects Daughter;fontSource=https%3A%2F%2Ffonts.googleapis.com%2Fcss%3Ffamily%3DArchitects%2BDaughter;fontSize=20;" vertex="1" parent="1">
          <mxGeometry x="-236" y="5" width="239" height="60" as="geometry" />
        </mxCell>
        <mxCell id="36B8C9YstbzIjQ_irZci-5" value="" style="edgeStyle=orthogonalEdgeStyle;rounded=0;sketch=1;hachureGap=4;jiggle=2;curveFitting=1;orthogonalLoop=1;jettySize=auto;html=1;fontFamily=Architects Daughter;fontSource=https%3A%2F%2Ffonts.googleapis.com%2Fcss%3Ffamily%3DArchitects%2BDaughter;fontSize=16;" edge="1" parent="1" source="36B8C9YstbzIjQ_irZci-11" target="36B8C9YstbzIjQ_irZci-13">
          <mxGeometry relative="1" as="geometry" />
        </mxCell>
        <mxCell id="36B8C9YstbzIjQ_irZci-6" value="生成" style="edgeLabel;html=1;align=center;verticalAlign=middle;resizable=0;points=[];fontSize=20;fontFamily=Architects Daughter;" vertex="1" connectable="0" parent="36B8C9YstbzIjQ_irZci-5">
          <mxGeometry x="-0.0488" relative="1" as="geometry">
            <mxPoint as="offset" />
          </mxGeometry>
        </mxCell>
        <mxCell id="36B8C9YstbzIjQ_irZci-7" style="edgeStyle=orthogonalEdgeStyle;rounded=0;sketch=1;hachureGap=4;jiggle=2;curveFitting=1;orthogonalLoop=1;jettySize=auto;html=1;entryX=0;entryY=0.5;entryDx=0;entryDy=0;fontFamily=Architects Daughter;fontSource=https%3A%2F%2Ffonts.googleapis.com%2Fcss%3Ffamily%3DArchitects%2BDaughter;fontSize=16;exitX=0.5;exitY=1;exitDx=0;exitDy=0;" edge="1" parent="1" source="36B8C9YstbzIjQ_irZci-11" target="36B8C9YstbzIjQ_irZci-15">
          <mxGeometry relative="1" as="geometry" />
        </mxCell>
        <mxCell id="36B8C9YstbzIjQ_irZci-8" value="生成" style="edgeLabel;html=1;align=center;verticalAlign=middle;resizable=0;points=[];fontSize=20;fontFamily=Architects Daughter;" vertex="1" connectable="0" parent="36B8C9YstbzIjQ_irZci-7">
          <mxGeometry x="0.534" y="-2" relative="1" as="geometry">
            <mxPoint as="offset" />
          </mxGeometry>
        </mxCell>
        <mxCell id="36B8C9YstbzIjQ_irZci-18" style="edgeStyle=orthogonalEdgeStyle;rounded=0;sketch=1;hachureGap=4;jiggle=2;curveFitting=1;orthogonalLoop=1;jettySize=auto;html=1;entryX=0.25;entryY=1;entryDx=0;entryDy=0;fontFamily=Architects Daughter;fontSource=https%3A%2F%2Ffonts.googleapis.com%2Fcss%3Ffamily%3DArchitects%2BDaughter;fontSize=16;" edge="1" parent="1" source="36B8C9YstbzIjQ_irZci-11" target="36B8C9YstbzIjQ_irZci-16">
          <mxGeometry relative="1" as="geometry">
            <Array as="points">
              <mxPoint x="170" y="237" />
              <mxPoint x="792" y="237" />
            </Array>
          </mxGeometry>
        </mxCell>
        <mxCell id="36B8C9YstbzIjQ_irZci-19" value="生成" style="edgeLabel;html=1;align=center;verticalAlign=middle;resizable=0;points=[];fontSize=20;fontFamily=Architects Daughter;" vertex="1" connectable="0" parent="36B8C9YstbzIjQ_irZci-18">
          <mxGeometry x="-0.3018" y="-1" relative="1" as="geometry">
            <mxPoint as="offset" />
          </mxGeometry>
        </mxCell>
        <mxCell id="36B8C9YstbzIjQ_irZci-11" value="在线制作工具" style="rounded=1;whiteSpace=wrap;html=1;sketch=1;hachureGap=4;jiggle=2;curveFitting=1;fontFamily=Architects Daughter;fontSource=https%3A%2F%2Ffonts.googleapis.com%2Fcss%3Ffamily%3DArchitects%2BDaughter;fontSize=20;" vertex="1" parent="1">
          <mxGeometry x="83" y="5" width="173" height="60" as="geometry" />
        </mxCell>
        <mxCell id="36B8C9YstbzIjQ_irZci-12" style="edgeStyle=orthogonalEdgeStyle;rounded=0;sketch=1;hachureGap=4;jiggle=2;curveFitting=1;orthogonalLoop=1;jettySize=auto;html=1;fontFamily=Architects Daughter;fontSource=https%3A%2F%2Ffonts.googleapis.com%2Fcss%3Ffamily%3DArchitects%2BDaughter;fontSize=16;" edge="1" parent="1" source="36B8C9YstbzIjQ_irZci-13" target="36B8C9YstbzIjQ_irZci-16">
          <mxGeometry relative="1" as="geometry" />
        </mxCell>
        <mxCell id="36B8C9YstbzIjQ_irZci-13" value="模板文件" style="rounded=1;whiteSpace=wrap;html=1;sketch=1;hachureGap=4;jiggle=2;curveFitting=1;fontFamily=Architects Daughter;fontSource=https%3A%2F%2Ffonts.googleapis.com%2Fcss%3Ffamily%3DArchitects%2BDaughter;fontSize=20;" vertex="1" parent="1">
          <mxGeometry x="420" y="5" width="173" height="60" as="geometry" />
        </mxCell>
        <mxCell id="36B8C9YstbzIjQ_irZci-14" style="edgeStyle=orthogonalEdgeStyle;rounded=0;sketch=1;hachureGap=4;jiggle=2;curveFitting=1;orthogonalLoop=1;jettySize=auto;html=1;entryX=0;entryY=0.5;entryDx=0;entryDy=0;fontFamily=Architects Daughter;fontSource=https%3A%2F%2Ffonts.googleapis.com%2Fcss%3Ffamily%3DArchitects%2BDaughter;fontSize=16;" edge="1" parent="1" source="36B8C9YstbzIjQ_irZci-15" target="36B8C9YstbzIjQ_irZci-16">
          <mxGeometry relative="1" as="geometry" />
        </mxCell>
        <mxCell id="36B8C9YstbzIjQ_irZci-15" value="预设参数" style="rounded=1;whiteSpace=wrap;html=1;sketch=1;hachureGap=4;jiggle=2;curveFitting=1;fontFamily=Architects Daughter;fontSource=https%3A%2F%2Ffonts.googleapis.com%2Fcss%3Ffamily%3DArchitects%2BDaughter;fontSize=20;" vertex="1" parent="1">
          <mxGeometry x="420" y="145" width="173" height="60" as="geometry" />
        </mxCell>
        <mxCell id="36B8C9YstbzIjQ_irZci-16" value="代码生成器&lt;br&gt;（Jar包）" style="rounded=1;whiteSpace=wrap;html=1;sketch=1;hachureGap=4;jiggle=2;curveFitting=1;fontFamily=Architects Daughter;fontSource=https%3A%2F%2Ffonts.googleapis.com%2Fcss%3Ffamily%3DArchitects%2BDaughter;fontSize=20;" vertex="1" parent="1">
          <mxGeometry x="749" y="5" width="173" height="60" as="geometry" />
        </mxCell>
        <mxCell id="36B8C9YstbzIjQ_irZci-17" value="&lt;font style=&quot;font-size: 25px;&quot;&gt;&lt;b&gt;CodeCraft第三阶段流程图&lt;/b&gt;&lt;/font&gt;" style="text;html=1;strokeColor=none;fillColor=#999999;align=center;verticalAlign=middle;whiteSpace=wrap;rounded=1;fontSize=20;fontFamily=Architects Daughter;glass=1;shadow=1;sketch=1;curveFitting=1;jiggle=2;" vertex="1" parent="1">
          <mxGeometry x="-408" y="-76" width="306" height="30" as="geometry" />
        </mxCell>
        <mxCell id="36B8C9YstbzIjQ_irZci-20" value="代码生成器平台" style="rounded=1;whiteSpace=wrap;html=1;sketch=1;hachureGap=4;jiggle=2;curveFitting=1;fontFamily=Architects Daughter;fontSource=https%3A%2F%2Ffonts.googleapis.com%2Fcss%3Ffamily%3DArchitects%2BDaughter;fontSize=20;" vertex="1" parent="1">
          <mxGeometry x="-225" y="291" width="1160" height="156" as="geometry" />
        </mxCell>
        <mxCell id="36B8C9YstbzIjQ_irZci-22" value="SQL生成器" style="rounded=1;whiteSpace=wrap;html=1;sketch=1;hachureGap=4;jiggle=2;curveFitting=1;fontFamily=Architects Daughter;fontSource=https%3A%2F%2Ffonts.googleapis.com%2Fcss%3Ffamily%3DArchitects%2BDaughter;fontSize=20;" vertex="1" parent="1">
          <mxGeometry x="-183" y="339" width="120" height="60" as="geometry" />
        </mxCell>
        <mxCell id="36B8C9YstbzIjQ_irZci-23" value="Dockerfile生成器" style="rounded=1;whiteSpace=wrap;html=1;sketch=1;hachureGap=4;jiggle=2;curveFitting=1;fontFamily=Architects Daughter;fontSource=https%3A%2F%2Ffonts.googleapis.com%2Fcss%3Ffamily%3DArchitects%2BDaughter;fontSize=20;" vertex="1" parent="1">
          <mxGeometry x="-33" y="339" width="193" height="60" as="geometry" />
        </mxCell>
        <mxCell id="36B8C9YstbzIjQ_irZci-24" value="Java对象生成器" style="rounded=1;whiteSpace=wrap;html=1;sketch=1;hachureGap=4;jiggle=2;curveFitting=1;fontFamily=Architects Daughter;fontSource=https%3A%2F%2Ffonts.googleapis.com%2Fcss%3Ffamily%3DArchitects%2BDaughter;fontSize=20;" vertex="1" parent="1">
          <mxGeometry x="485" y="339" width="193" height="60" as="geometry" />
        </mxCell>
        <mxCell id="36B8C9YstbzIjQ_irZci-25" value="C++模板生成器" style="rounded=1;whiteSpace=wrap;html=1;sketch=1;hachureGap=4;jiggle=2;curveFitting=1;fontFamily=Architects Daughter;fontSource=https%3A%2F%2Ffonts.googleapis.com%2Fcss%3Ffamily%3DArchitects%2BDaughter;fontSize=20;" vertex="1" parent="1">
          <mxGeometry x="729" y="339" width="193" height="60" as="geometry" />
        </mxCell>
        <mxCell id="36B8C9YstbzIjQ_irZci-26" style="edgeStyle=orthogonalEdgeStyle;rounded=0;sketch=1;hachureGap=4;jiggle=2;curveFitting=1;orthogonalLoop=1;jettySize=auto;html=1;entryX=0.914;entryY=-0.006;entryDx=0;entryDy=0;entryPerimeter=0;fontFamily=Architects Daughter;fontSource=https%3A%2F%2Ffonts.googleapis.com%2Fcss%3Ffamily%3DArchitects%2BDaughter;fontSize=16;" edge="1" parent="1" source="36B8C9YstbzIjQ_irZci-16" target="36B8C9YstbzIjQ_irZci-20">
          <mxGeometry relative="1" as="geometry" />
        </mxCell>
        <mxCell id="36B8C9YstbzIjQ_irZci-27" value="发布" style="edgeLabel;html=1;align=center;verticalAlign=middle;resizable=0;points=[];fontSize=20;fontFamily=Architects Daughter;" vertex="1" connectable="0" parent="36B8C9YstbzIjQ_irZci-26">
          <mxGeometry x="-0.077" y="1" relative="1" as="geometry">
            <mxPoint as="offset" />
          </mxGeometry>
        </mxCell>
        <mxCell id="P6iue3QtRoin3RLvhgKM-1" style="edgeStyle=orthogonalEdgeStyle;rounded=0;sketch=1;hachureGap=4;jiggle=2;curveFitting=1;orthogonalLoop=1;jettySize=auto;html=1;entryX=0;entryY=0.5;entryDx=0;entryDy=0;fontFamily=Architects Daughter;fontSource=https%3A%2F%2Ffonts.googleapis.com%2Fcss%3Ffamily%3DArchitects%2BDaughter;fontSize=16;" edge="1" parent="1" source="P6iue3QtRoin3RLvhgKM-2" target="P6iue3QtRoin3RLvhgKM-6">
          <mxGeometry relative="1" as="geometry" />
        </mxCell>
        <mxCell id="P6iue3QtRoin3RLvhgKM-2" value="User" style="shape=umlActor;verticalLabelPosition=bottom;verticalAlign=top;html=1;outlineConnect=0;sketch=1;hachureGap=4;jiggle=2;curveFitting=1;fontFamily=Architects Daughter;fontSource=https%3A%2F%2Ffonts.googleapis.com%2Fcss%3Ffamily%3DArchitects%2BDaughter;fontSize=20;" vertex="1" parent="1">
          <mxGeometry x="-316" y="559" width="30" height="60" as="geometry" />
        </mxCell>
        <mxCell id="P6iue3QtRoin3RLvhgKM-3" value="" style="edgeStyle=orthogonalEdgeStyle;rounded=0;sketch=1;hachureGap=4;jiggle=2;curveFitting=1;orthogonalLoop=1;jettySize=auto;html=1;fontFamily=Architects Daughter;fontSource=https%3A%2F%2Ffonts.googleapis.com%2Fcss%3Ffamily%3DArchitects%2BDaughter;fontSize=16;" edge="1" parent="1" source="P6iue3QtRoin3RLvhgKM-6" target="P6iue3QtRoin3RLvhgKM-8">
          <mxGeometry relative="1" as="geometry" />
        </mxCell>
        <mxCell id="P6iue3QtRoin3RLvhgKM-4" style="edgeStyle=orthogonalEdgeStyle;rounded=0;sketch=1;hachureGap=4;jiggle=2;curveFitting=1;orthogonalLoop=1;jettySize=auto;html=1;entryX=0;entryY=0.5;entryDx=0;entryDy=0;fontFamily=Architects Daughter;fontSource=https%3A%2F%2Ffonts.googleapis.com%2Fcss%3Ffamily%3DArchitects%2BDaughter;fontSize=16;exitX=0.5;exitY=1;exitDx=0;exitDy=0;" edge="1" parent="1" source="P6iue3QtRoin3RLvhgKM-6" target="P6iue3QtRoin3RLvhgKM-10">
          <mxGeometry relative="1" as="geometry" />
        </mxCell>
        <mxCell id="P6iue3QtRoin3RLvhgKM-6" value="选用代码生成器&lt;br&gt;（Web端、下载Jar包）" style="rounded=1;whiteSpace=wrap;html=1;sketch=1;hachureGap=4;jiggle=2;curveFitting=1;fontFamily=Architects Daughter;fontSource=https%3A%2F%2Ffonts.googleapis.com%2Fcss%3Ffamily%3DArchitects%2BDaughter;fontSize=20;" vertex="1" parent="1">
          <mxGeometry x="-233" y="559" width="216" height="60" as="geometry" />
        </mxCell>
        <mxCell id="P6iue3QtRoin3RLvhgKM-7" style="edgeStyle=orthogonalEdgeStyle;rounded=0;sketch=1;hachureGap=4;jiggle=2;curveFitting=1;orthogonalLoop=1;jettySize=auto;html=1;fontFamily=Architects Daughter;fontSource=https%3A%2F%2Ffonts.googleapis.com%2Fcss%3Ffamily%3DArchitects%2BDaughter;fontSize=16;" edge="1" parent="1" source="P6iue3QtRoin3RLvhgKM-8" target="P6iue3QtRoin3RLvhgKM-11">
          <mxGeometry relative="1" as="geometry" />
        </mxCell>
        <mxCell id="P6iue3QtRoin3RLvhgKM-8" value="模板文件" style="rounded=1;whiteSpace=wrap;html=1;sketch=1;hachureGap=4;jiggle=2;curveFitting=1;fontFamily=Architects Daughter;fontSource=https%3A%2F%2Ffonts.googleapis.com%2Fcss%3Ffamily%3DArchitects%2BDaughter;fontSize=20;" vertex="1" parent="1">
          <mxGeometry x="170" y="559" width="173" height="60" as="geometry" />
        </mxCell>
        <mxCell id="P6iue3QtRoin3RLvhgKM-9" style="edgeStyle=orthogonalEdgeStyle;rounded=0;sketch=1;hachureGap=4;jiggle=2;curveFitting=1;orthogonalLoop=1;jettySize=auto;html=1;entryX=0;entryY=0.5;entryDx=0;entryDy=0;fontFamily=Architects Daughter;fontSource=https%3A%2F%2Ffonts.googleapis.com%2Fcss%3Ffamily%3DArchitects%2BDaughter;fontSize=16;" edge="1" parent="1" source="P6iue3QtRoin3RLvhgKM-10" target="P6iue3QtRoin3RLvhgKM-11">
          <mxGeometry relative="1" as="geometry" />
        </mxCell>
        <mxCell id="P6iue3QtRoin3RLvhgKM-10" value="输入参数" style="rounded=1;whiteSpace=wrap;html=1;sketch=1;hachureGap=4;jiggle=2;curveFitting=1;fontFamily=Architects Daughter;fontSource=https%3A%2F%2Ffonts.googleapis.com%2Fcss%3Ffamily%3DArchitects%2BDaughter;fontSize=20;" vertex="1" parent="1">
          <mxGeometry x="170" y="681" width="173" height="60" as="geometry" />
        </mxCell>
        <mxCell id="P6iue3QtRoin3RLvhgKM-11" value="产物代码" style="rounded=1;whiteSpace=wrap;html=1;sketch=1;hachureGap=4;jiggle=2;curveFitting=1;fontFamily=Architects Daughter;fontSource=https%3A%2F%2Ffonts.googleapis.com%2Fcss%3Ffamily%3DArchitects%2BDaughter;fontSize=20;" vertex="1" parent="1">
          <mxGeometry x="502" y="559" width="173" height="60" as="geometry" />
        </mxCell>
        <mxCell id="P6iue3QtRoin3RLvhgKM-12" style="edgeStyle=orthogonalEdgeStyle;rounded=0;sketch=1;hachureGap=4;jiggle=2;curveFitting=1;orthogonalLoop=1;jettySize=auto;html=1;entryX=0.082;entryY=1.006;entryDx=0;entryDy=0;entryPerimeter=0;fontFamily=Architects Daughter;fontSource=https%3A%2F%2Ffonts.googleapis.com%2Fcss%3Ffamily%3DArchitects%2BDaughter;fontSize=16;" edge="1" parent="1" source="P6iue3QtRoin3RLvhgKM-6" target="36B8C9YstbzIjQ_irZci-20">
          <mxGeometry relative="1" as="geometry" />
        </mxCell>
        <mxCell id="P6iue3QtRoin3RLvhgKM-13" value="搜索" style="edgeLabel;html=1;align=center;verticalAlign=middle;resizable=0;points=[];fontSize=20;fontFamily=Architects Daughter;" vertex="1" connectable="0" parent="P6iue3QtRoin3RLvhgKM-12">
          <mxGeometry x="-0.0711" y="-1" relative="1" as="geometry">
            <mxPoint x="1" as="offset" />
          </mxGeometry>
        </mxCell>
      </root>
    </mxGraphModel>
  </diagram>
</mxfile>
